HIERARCHY
ROOT Hips
{
	OFFSET	0.000000	0.000000	0.000000
	CHANNELS 6 Xposition Yposition Zposition Zrotation Xrotation Yrotation
	JOINT LeftHip
	{
		OFFSET	4.740440	-3.195970	-0.322709
		CHANNELS 3 Zrotation Xrotation Yrotation
		JOINT LeftKnee
		{
			OFFSET	-1.605680	-15.592300	1.005510
			CHANNELS 3 Zrotation Xrotation Yrotation
			JOINT LeftAnkle
			{
				OFFSET	-0.632401	-16.421000	-1.413730
				CHANNELS 3 Zrotation Xrotation Yrotation
				End Site
				{
					OFFSET	0.008423	-2.933000	-1.684880
				}
			}
		}
	}
	JOINT RightHip
	{
		OFFSET	-4.740440	-3.195970	-0.322709
		CHANNELS 3 Zrotation Xrotation Yrotation
		JOINT RightKnee
		{
			OFFSET	1.605680	-15.592300	1.005510
			CHANNELS 3 Zrotation Xrotation Yrotation
			JOINT RightAnkle
			{
				OFFSET	0.632401	-16.421000	-1.413730
				CHANNELS 3 Zrotation Xrotation Yrotation
				End Site
				{
					OFFSET	-0.008423	-2.933000	-1.684880
				}
			}
		}
	}
	JOINT Chest
	{
		OFFSET	0.000000	3.468200	0.078401
		CHANNELS 3 Zrotation Xrotation Yrotation
		JOINT LeftCollar
		{
			OFFSET	3.857650	15.070700	-0.011583
			CHANNELS 3 Zrotation Xrotation Yrotation
			JOINT LeftShoulder
			{
				OFFSET	3.979720	-1.940530	-0.165223
				CHANNELS 3 Zrotation Xrotation Yrotation
				JOINT LeftElbow
				{
					OFFSET	0.615844	-10.986600	-0.673886
					CHANNELS 3 Zrotation Xrotation Yrotation
					JOINT LeftWrist
					{
						OFFSET	0.826843	-10.854500	1.034220
						CHANNELS 3 Zrotation Xrotation Yrotation
						End Site
						{
							OFFSET	-1.679080	-8.456540	0.936217
						}
					}
				}
			}
		}
		JOINT RightCollar
		{
			OFFSET	-3.857650	15.070700	-0.011583
			CHANNELS 3 Zrotation Xrotation Yrotation
			JOINT RightShoulder
			{
				OFFSET	-3.979720	-1.940530	-0.165223
				CHANNELS 3 Zrotation Xrotation Yrotation
				JOINT RightElbow
				{
					OFFSET	-0.615845	-10.986600	-0.673886
					CHANNELS 3 Zrotation Xrotation Yrotation
					JOINT RightWrist
					{
						OFFSET	-0.826843	-10.854500	1.034220
						CHANNELS 3 Zrotation Xrotation Yrotation
						End Site
						{
							OFFSET	1.679080	-8.456540	0.936217
						}
					}
				}
			}
		}
		JOINT Neck
		{
			OFFSET	0.000000	15.101400	0.055730
			CHANNELS 3 Zrotation Xrotation Yrotation
			JOINT Head
			{
				OFFSET	0.000000	4.185120	1.488260
				CHANNELS 3 Zrotation Xrotation Yrotation
				End Site
				{
					OFFSET	0.000000	7.773420	-0.106016
				}
			}
		}
	}
}
MOTION
Frames:     9
Frame Time: 0.016667
3.031987	37.691139	-1.797129	0.700506	-10.091485	-21.473434	-2.988688	5.042835	-1.637636	-4.512803	4.376970	3.432747	3.908809	-2.072739	5.257763	-18.608570	-1.364974	-0.022479	-0.309895	19.418268	8.061738	12.223702	-10.078653	7.927849	-6.864391	5.433890	2.569051	-0.872067	4.370100	2.493756	4.368364	-3.429489	-2.337412	-9.702874	-10.819352	-7.249067	16.679514	10.848064	-17.395597	1.197925	3.466547	0.367413	-2.565610	-2.668390	0.200508	0.449384	-8.217360	7.779968	-22.341270	1.673963	19.693838	0.110032	7.670211	-5.834701	1.542503	4.874121	-5.784721	
3.032317	37.689644	-1.798399	0.712651	-10.100805	-21.479836	-3.005613	5.043577	-1.638313	-4.512035	4.379351	3.442587	3.908809	-2.072739	5.257763	-18.622883	-1.363626	-0.013024	-0.293074	19.426111	8.073479	12.204091	-10.087732	7.911831	-6.879785	5.437135	2.578072	-0.872067	4.370100	2.493756	4.375320	-3.435772	-2.390005	-9.696095	-10.801669	-7.280683	16.665260	10.863238	-17.423412	1.191515	3.478981	0.362708	-2.559706	-2.681404	0.172718	0.416062	-8.189824	7.755157	-22.345528	1.627101	19.650057	0.008366	7.544661	-5.973809	1.659986	4.780870	-5.869221	
3.032174	37.689198	-1.798711	0.716609	-10.103847	-21.481892	-3.010602	5.044837	-1.635480	-4.512035	4.379351	3.442587	3.908809	-2.072739	5.257763	-18.627552	-1.363173	-0.009967	-0.276770	19.434357	8.085418	12.184916	-10.097264	7.895887	-6.884800	5.438200	2.580985	-0.872067	4.370100	2.493756	4.386851	-3.436662	-2.405243	-9.706395	-10.802611	-7.289491	16.663771	10.872205	-17.435068	1.191515	3.478981	0.362708	-2.559971	-2.681523	0.157362	0.415922	-8.177455	7.752811	-22.354156	1.605462	19.628233	-0.058609	7.465630	-6.065443	1.718443	4.789041	-5.844825	
3.032073	37.687836	-1.799757	0.728177	-10.112720	-21.487959	-3.025835	5.047202	-1.631170	-4.511740	4.380329	3.446771	3.908809	-2.072739	5.257763	-18.641184	-1.361892	-0.000987	-0.259803	19.442108	8.097881	12.165033	-10.106387	7.879064	-6.899458	5.441280	2.589553	-0.875035	4.380203	2.482604	4.425924	-3.448324	-2.437047	-9.735394	-10.808148	-7.268739	16.684717	10.874531	-17.480156	1.191515	3.478981	0.362708	-2.560736	-2.681856	0.114957	0.421288	-8.154303	7.744390	-22.371729	1.558532	19.586246	-0.111693	7.441269	-6.146146	1.819781	4.663087	-5.944510	
3.032002	37.687401	-1.800074	0.731896	-10.115569	-21.489910	-3.030670	5.048135	-1.629131	-4.511648	4.380522	3.447443	3.908809	-2.072739	5.257763	-18.645565	-1.361479	0.001900	-0.242867	19.450052	8.110191	12.145186	-10.115651	7.862442	-6.904170	5.442272	2.592307	-0.878687	4.392642	2.468872	4.442219	-3.460516	-2.436538	-9.744817	-10.810518	-7.253452	16.710764	10.866245	-17.514500	1.197392	3.479968	0.356555	-2.566608	-2.683183	0.106009	0.423106	-8.146057	7.742853	-22.377144	1.542847	19.573645	-0.139398	7.414482	-6.185225	1.882105	4.679272	-5.957489	
3.031576	37.686058	-1.801019	0.743776	-10.124691	-21.496134	-3.045648	5.051890	-1.620576	-4.511648	4.380522	3.447443	3.908809	-2.072739	5.257763	-18.659571	-1.360156	0.011120	-0.225677	19.458374	8.121742	12.125174	-10.125101	7.846557	-6.919230	5.445443	2.601102	-0.895021	4.412580	2.438633	4.495371	-3.477203	-2.418434	-9.778518	-10.815377	-7.254930	16.744249	10.863051	-17.576416	1.216806	3.482836	0.336648	-2.585818	-2.687047	0.087202	0.426606	-8.113795	7.733083	-22.408348	1.485937	19.552177	-0.229110	7.438454	-6.334035	2.078680	4.628301	-5.953540	
3.031434	37.685600	-1.801337	0.747775	-10.127761	-21.498217	-3.050690	5.053152	-1.617702	-4.511648	4.380522	3.447443	3.908809	-2.072739	5.257763	-18.664284	-1.359712	0.014218	-0.208387	19.466896	8.132004	12.105260	-10.134460	7.831952	-6.924298	5.446508	2.604057	-0.905867	4.416442	2.426754	4.508501	-3.480350	-2.405435	-9.781672	-10.814512	-7.275924	16.741961	10.868163	-17.555855	1.222720	3.483701	0.330581	-2.591444	-2.688099	0.091357	0.425962	-8.103605	7.721066	-22.429106	1.466227	19.565331	-0.261576	7.449108	-6.387259	2.144679	4.609999	-5.945423	
3.031008	37.684258	-1.802280	0.759629	-10.136868	-21.504412	-3.065634	5.056899	-1.609179	-4.511648	4.380522	3.447443	3.908809	-2.072739	5.257763	-18.678261	-1.358389	0.023405	-0.191086	19.475079	8.141200	12.085557	-10.143261	7.818319	-6.939324	5.449673	2.612820	-0.943416	4.427946	2.387294	4.548058	-3.490031	-2.362095	-9.784551	-10.812371	-7.316901	16.716164	10.827996	-17.533480	1.244251	3.486814	0.308518	-2.612550	-2.692306	0.084255	0.431150	-8.102043	7.716471	-22.450779	1.447114	19.581158	-0.339319	7.475179	-6.517318	2.329073	4.556725	-5.958220	
3.030868	37.683823	-1.802588	0.763526	-10.139853	-21.506447	-3.070546	5.058125	-1.606378	-4.511648	4.380522	3.447443	3.908809	-2.072739	5.257763	-18.682856	-1.357957	0.026424	-0.173794	19.482248	8.149597	12.066103	-10.150906	7.805264	-6.944263	5.450708	2.615700	-0.955061	4.431844	2.374771	4.560333	-3.493330	-2.348343	-9.785898	-10.811398	-7.336135	16.699930	10.752473	-17.547215	1.253393	3.488110	0.299145	-2.621447	-2.694043	0.083518	0.432910	-8.101985	7.717061	-22.469738	1.438249	19.573040	-0.356554	7.480989	-6.546145	2.375558	4.542964	-5.968447	
